<svg xmlns="http://www.w3.org/2000/svg" viewBox="0 0 680 380" font-family="sans-serif" font-size="12">
<rect width="100%" height="100%" fill="#f6f1ea"/><text x="85" y="16" text-anchor="middle" fill="#2e2620">Becher</text><path d="M17.0 26.0L18.0 28.8L18.7 31.5L18.9 34.3L18.9 37.1L19.0 39.8L19.1 42.6L19.1 45.4L19.2 48.1L19.2 50.9L19.2 53.7L19.3 56.4L19.3 59.2L19.3 62.0L19.3 64.7L19.4 67.5L19.4 70.3L19.4 73.0L19.4 75.8L19.4 78.6L19.5 81.3L19.5 84.1L19.5 86.9L19.6 89.6L19.6 92.4L19.7 95.1L19.7 97.9L19.8 100.7L19.8 103.4L19.9 106.2L20.0 109.0L20.1 111.7L20.1 114.5L20.2 117.3L20.3 120.0L20.4 122.8L20.5 125.6L20.6 128.3L20.8 131.1L20.9 133.9L21.1 136.6L21.3 139.4L21.5 142.2L21.7 144.9L21.9 147.7L22.4 150.5L23.7 153.2L25.9 156.0L52.3 156.0L50.2 153.2L49.5 150.5L49.2 147.7L49.0 144.9L48.9 142.2L48.8 139.4L48.7 136.6L48.6 133.9L48.5 131.1L48.5 128.3L48.4 125.6L48.3 122.8L48.3 120.0L48.2 117.3L48.2 114.5L48.1 111.7L48.1 109.0L48.1 106.2L48.0 103.4L48.0 100.7L47.9 97.9L47.9 95.1L47.9 92.4L47.8 89.6L47.8 86.9L47.8 84.1L47.8 81.3L47.7 78.6L47.7 75.8L47.7 73.0L47.7 70.3L47.7 67.5L47.7 64.7L47.7 62.0L47.7 59.2L47.7 56.4L47.7 53.7L47.7 50.9L47.7 48.1L47.7 45.4L47.7 42.6L47.8 39.8L47.8 37.1L47.8 34.3L47.8 31.5L47.6 28.8L47.3 26.0Z" fill="#b5643c" opacity=".18"/><path d="M153.0 26.0L152.0 28.8L151.3 31.5L151.1 34.3L151.1 37.1L151.0 39.8L150.9 42.6L150.9 45.4L150.8 48.1L150.8 50.9L150.8 53.7L150.7 56.4L150.7 59.2L150.7 62.0L150.7 64.7L150.6 67.5L150.6 70.3L150.6 73.0L150.6 75.8L150.6 78.6L150.5 81.3L150.5 84.1L150.5 86.9L150.4 89.6L150.4 92.4L150.3 95.1L150.3 97.9L150.2 100.7L150.2 103.4L150.1 106.2L150.0 109.0L149.9 111.7L149.9 114.5L149.8 117.3L149.7 120.0L149.6 122.8L149.5 125.6L149.4 128.3L149.2 131.1L149.1 133.9L148.9 136.6L148.7 139.4L148.5 142.2L148.3 144.9L148.1 147.7L147.6 150.5L146.3 153.2L144.1 156.0L117.7 156.0L119.8 153.2L120.5 150.5L120.8 147.7L121.0 144.9L121.1 142.2L121.2 139.4L121.3 136.6L121.4 133.9L121.5 131.1L121.5 128.3L121.6 125.6L121.7 122.8L121.7 120.0L121.8 117.3L121.8 114.5L121.9 111.7L121.9 109.0L121.9 106.2L122.0 103.4L122.0 100.7L122.1 97.9L122.1 95.1L122.1 92.4L122.2 89.6L122.2 86.9L122.2 84.1L122.2 81.3L122.3 78.6L122.3 75.8L122.3 73.0L122.3 70.3L122.3 67.5L122.3 64.7L122.3 62.0L122.3 59.2L122.3 56.4L122.3 53.7L122.3 50.9L122.3 48.1L122.3 45.4L122.3 42.6L122.2 39.8L122.2 37.1L122.2 34.3L122.2 31.5L122.4 28.8L122.7 26.0Z" fill="#b5643c" opacity=".18"/><path d="M32.2 26.0L32.8 28.8L33.2 31.5L33.3 34.3L33.4 37.1L33.4 39.8L33.4 42.6L33.4 45.4L33.4 48.1L33.5 50.9L33.5 53.7L33.5 56.4L33.5 59.2L33.5 62.0L33.5 64.7L33.5 67.5L33.5 70.3L33.5 73.0L33.6 75.8L33.6 78.6L33.6 81.3L33.6 84.1L33.7 86.9L33.7 89.6L33.8 92.4L33.8 95.1L33.8 97.9L33.9 100.7L33.9 103.4L34.0 106.2L34.0 109.0L34.1 111.7L34.2 114.5L34.2 117.3L34.3 120.0L34.4 122.8L34.5 125.6L34.6 128.3L34.7 131.1L34.8 133.9L34.9 136.6L35.0 139.4L35.2 142.2L35.3 144.9L35.5 147.7L35.9 150.5L37.0 153.2L39.1 156.0" fill="none" stroke="#2e2620" stroke-width="2"/><path d="M137.8 26.0L137.2 28.8L136.8 31.5L136.7 34.3L136.6 37.1L136.6 39.8L136.6 42.6L136.6 45.4L136.6 48.1L136.5 50.9L136.5 53.7L136.5 56.4L136.5 59.2L136.5 62.0L136.5 64.7L136.5 67.5L136.5 70.3L136.5 73.0L136.4 75.8L136.4 78.6L136.4 81.3L136.4 84.1L136.3 86.9L136.3 89.6L136.2 92.4L136.2 95.1L136.2 97.9L136.1 100.7L136.1 103.4L136.0 106.2L136.0 109.0L135.9 111.7L135.8 114.5L135.8 117.3L135.7 120.0L135.6 122.8L135.5 125.6L135.4 128.3L135.3 131.1L135.2 133.9L135.1 136.6L135.0 139.4L134.8 142.2L134.7 144.9L134.5 147.7L134.1 150.5L133.0 153.2L130.9 156.0" fill="none" stroke="#2e2620" stroke-width="2"/><path d="M135.1 26.0L134.1 28.8L133.5 31.5L133.4 34.3L133.2 37.1L133.2 39.8L133.1 42.6L133.1 45.4L133.0 48.1L133.0 50.9L132.8 53.7L132.8 56.4L132.7 59.2L132.7 62.0L132.7 64.7L132.6 67.5L132.6 70.3L132.6 73.0L132.4 75.8L132.4 78.6L132.4 81.3L132.3 84.1L132.3 86.9L132.3 89.6L132.2 92.4L132.2 95.1L132.1 97.9L132.1 100.7L132.1 103.4L132.1 106.2L131.9 109.0L131.9 111.7L131.9 114.5L131.9 117.3L131.8 120.0L131.8 122.8L131.8 125.6L131.7 128.3L131.7 131.1L131.5 133.9L131.5 136.6L131.4 139.4L131.3 142.2L131.2 144.9L131.0 147.7L130.9 150.5L130.8 153.2L127.4 156.0" fill="none" stroke="#7a6c60" stroke-width=".7" opacity=".6"/><path d="M149.2 26.0L147.3 28.8L145.4 31.5L145.1 34.3L144.9 37.1L144.8 39.8L144.8 42.6L144.7 45.4L144.7 48.1L144.7 50.9L144.7 53.7L144.5 56.4L144.5 59.2L144.5 62.0L144.5 64.7L144.5 67.5L144.5 70.3L144.5 73.0L144.4 75.8L144.4 78.6L144.4 81.3L144.4 84.1L144.3 86.9L144.3 89.6L144.2 92.4L144.2 95.1L144.0 97.9L143.9 100.7L143.8 103.4L143.6 106.2L143.5 109.0L143.2 111.7L143.1 114.5L142.8 117.3L142.6 120.0L142.3 122.8L142.1 125.6L141.7 128.3L141.4 131.1L141.0 133.9L140.5 136.6L140.1 139.4L139.6 142.2L139.1 144.9L138.6 147.7L137.5 150.5L135.6 153.2L133.6 156.0" fill="none" stroke="#7a6c60" stroke-width=".7" opacity=".6"/><path d="M127.4 26.0L126.9 28.8L126.3 31.5L126.2 34.3L126.2 37.1L126.1 39.8L126.1 42.6L126.1 45.4L126.0 48.1L126.0 50.9L126.0 53.7L126.0 56.4L126.0 59.2L126.0 62.0L126.0 64.7L125.8 67.5L125.8 70.3L125.8 73.0L125.8 75.8L125.8 78.6L125.8 81.3L125.8 84.1L125.8 86.9L125.7 89.6L125.7 92.4L125.7 95.1L125.7 97.9L125.6 100.7L125.6 103.4L125.6 106.2L125.6 109.0L125.6 111.7L125.6 114.5L125.4 117.3L125.4 120.0L125.4 122.8L125.3 125.6L125.3 128.3L125.3 131.1L125.2 133.9L125.2 136.6L125.0 139.4L124.9 142.2L124.9 144.9L124.7 147.7L123.6 150.5L121.7 153.2L119.8 156.0" fill="none" stroke="#7a6c60" stroke-width=".7" opacity=".6"/><path d="M129.5 26.0L128.8 28.8L128.3 31.5L128.2 34.3L127.9 37.1L127.8 39.8L127.6 42.6L127.5 45.4L127.4 48.1L127.3 50.9L127.1 53.7L127.0 56.4L126.9 59.2L126.9 62.0L126.7 64.7L126.6 67.5L126.6 70.3L126.5 73.0L126.5 75.8L126.3 78.6L126.3 81.3L126.2 84.1L126.2 86.9L126.1 89.6L126.1 92.4L126.0 95.1L126.0 97.9L126.0 100.7L125.8 103.4L125.8 106.2L125.8 109.0L125.8 111.7L125.7 114.5L125.7 117.3L125.7 120.0L125.7 122.8L125.6 125.6L125.6 128.3L125.4 131.1L125.4 133.9L125.3 136.6L125.3 139.4L125.2 142.2L125.0 144.9L124.7 147.7L123.9 150.5L122.8 153.2L121.8 156.0" fill="none" stroke="#7a6c60" stroke-width=".7" opacity=".6"/><path d="M133.6 26.0L133.6 28.8L133.6 31.5L133.6 34.3L133.5 37.1L133.5 39.8L133.4 42.6L133.4 45.4L133.2 48.1L133.0 50.9L132.8 53.7L132.7 56.4L132.4 59.2L132.3 62.0L132.1 64.7L131.9 67.5L131.7 70.3L131.5 73.0L131.3 75.8L131.2 78.6L131.0 81.3L130.8 84.1L130.6 86.9L130.5 89.6L130.4 92.4L130.4 95.1L130.2 97.9L130.1 100.7L130.1 103.4L130.0 106.2L130.0 109.0L130.0 111.7L129.8 114.5L129.8 117.3L129.7 120.0L129.7 122.8L129.7 125.6L129.6 128.3L129.5 131.1L129.5 133.9L129.3 136.6L129.2 139.4L129.1 142.2L128.9 144.9L128.8 147.7L128.6 150.5L128.2 153.2L127.3 156.0" fill="none" stroke="#7a6c60" stroke-width=".7" opacity=".6"/><path d="M130.4 26.0L129.5 28.8L128.8 31.5L128.8 34.3L128.8 37.1L128.7 39.8L128.7 42.6L128.6 45.4L128.4 48.1L128.3 50.9L128.2 53.7L128.0 56.4L127.9 59.2L127.8 62.0L127.5 64.7L127.4 67.5L127.3 70.3L127.0 73.0L126.9 75.8L126.6 78.6L126.5 81.3L126.3 84.1L126.2 86.9L126.1 89.6L125.8 92.4L125.7 95.1L125.6 97.9L125.4 100.7L125.3 103.4L125.0 106.2L124.9 109.0L124.7 111.7L124.5 114.5L124.4 117.3L124.1 120.0L124.0 122.8L123.9 125.6L123.7 128.3L123.6 131.1L123.5 133.9L123.3 136.6L123.3 139.4L123.3 142.2L123.2 144.9L123.2 147.7L123.2 150.5L123.2 153.2L123.2 156.0" fill="none" stroke="#7a6c60" stroke-width=".7" opacity=".6"/><text x="255" y="16" text-anchor="middle" fill="#2e2620">Konischer Becher</text><path d="M185.0 26.0L186.0 28.6L186.8 31.2L187.5 33.9L188.2 36.5L188.8 39.1L189.4 41.7L190.0 44.4L190.5 47.0L191.1 49.6L191.7 52.2L192.2 54.8L192.7 57.5L193.2 60.1L193.7 62.7L194.2 65.3L194.6 67.9L195.1 70.6L195.5 73.2L195.9 75.8L196.3 78.4L196.7 81.1L197.0 83.7L197.4 86.3L197.7 88.9L198.1 91.5L198.4 94.2L198.7 96.8L198.9 99.4L199.2 102.0L199.4 104.6L199.7 107.3L199.9 109.9L200.0 112.5L200.1 115.1L200.2 117.8L200.2 120.4L200.3 123.0L200.3 125.6L200.3 128.2L200.4 130.9L200.5 133.5L200.6 136.1L200.8 138.7L201.0 141.4L201.4 144.0L202.2 146.6L204.4 149.2L233.8 149.2L233.0 146.6L232.2 144.0L231.5 141.4L231.0 138.7L230.4 136.1L229.9 133.5L229.3 130.9L228.8 128.2L228.3 125.6L227.8 123.0L227.3 120.4L226.9 117.8L226.5 115.1L226.1 112.5L225.7 109.9L225.4 107.3L225.0 104.6L224.7 102.0L224.4 99.4L224.1 96.8L223.9 94.2L223.6 91.5L223.4 88.9L223.2 86.3L223.0 83.7L222.9 81.1L222.7 78.4L222.5 75.8L222.4 73.2L222.3 70.6L222.2 67.9L222.1 65.3L222.0 62.7L221.9 60.1L221.8 57.5L221.8 54.8L221.8 52.2L221.7 49.6L221.7 47.0L221.7 44.4L221.7 41.7L221.7 39.1L221.7 36.5L221.8 33.9L221.8 31.2L221.7 28.6L221.6 26.0Z" fill="#b5643c" opacity=".18"/><path d="M325.0 26.0L324.0 28.6L323.2 31.2L322.5 33.9L321.8 36.5L321.2 39.1L320.6 41.7L320.0 44.4L319.5 47.0L318.9 49.6L318.3 52.2L317.8 54.8L317.3 57.5L316.8 60.1L316.3 62.7L315.8 65.3L315.4 67.9L314.9 70.6L314.5 73.2L314.1 75.8L313.7 78.4L313.3 81.1L313.0 83.7L312.6 86.3L312.3 88.9L311.9 91.5L311.6 94.2L311.3 96.8L311.1 99.4L310.8 102.0L310.6 104.6L310.3 107.3L310.1 109.9L310.0 112.5L309.9 115.1L309.8 117.8L309.8 120.4L309.7 123.0L309.7 125.6L309.7 128.2L309.6 130.9L309.5 133.5L309.4 136.1L309.2 138.7L309.0 141.4L308.6 144.0L307.8 146.6L305.6 149.2L276.2 149.2L277.0 146.6L277.8 144.0L278.5 141.4L279.0 138.7L279.6 136.1L280.1 133.5L280.7 130.9L281.2 128.2L281.7 125.6L282.2 123.0L282.7 120.4L283.1 117.8L283.5 115.1L283.9 112.5L284.3 109.9L284.6 107.3L285.0 104.6L285.3 102.0L285.6 99.4L285.9 96.8L286.1 94.2L286.4 91.5L286.6 88.9L286.8 86.3L287.0 83.7L287.1 81.1L287.3 78.4L287.5 75.8L287.6 73.2L287.7 70.6L287.8 67.9L287.9 65.3L288.0 62.7L288.1 60.1L288.2 57.5L288.2 54.8L288.2 52.2L288.3 49.6L288.3 47.0L288.3 44.4L288.3 41.7L288.3 39.1L288.3 36.5L288.2 33.9L288.2 31.2L288.3 28.6L288.4 26.0Z" fill="#b5643c" opacity=".18"/><path d="M203.3 26.0L203.8 28.6L204.3 31.2L204.6 33.9L204.9 36.5L205.2 39.1L205.5 41.7L205.8 44.4L206.1 47.0L206.4 49.6L206.7 52.2L207.0 54.8L207.3 57.5L207.6 60.1L207.9 62.7L208.1 65.3L208.4 67.9L208.7 70.6L209.0 73.2L209.2 75.8L209.5 78.4L209.8 81.1L210.0 83.7L210.3 86.3L210.6 88.9L210.9 91.5L211.1 94.2L211.4 96.8L211.7 99.4L212.0 102.0L212.2 104.6L212.5 107.3L212.8 109.9L213.0 112.5L213.3 115.1L213.5 117.8L213.8 120.4L214.0 123.0L214.3 125.6L214.6 128.2L214.9 130.9L215.2 133.5L215.5 136.1L215.9 138.7L216.3 141.4L216.8 144.0L217.6 146.6L219.1 149.2" fill="none" stroke="#2e2620" stroke-width="2"/><path d="M306.7 26.0L306.2 28.6L305.7 31.2L305.4 33.9L305.1 36.5L304.8 39.1L304.5 41.7L304.2 44.4L303.9 47.0L303.6 49.6L303.3 52.2L303.0 54.8L302.7 57.5L302.4 60.1L302.1 62.7L301.9 65.3L301.6 67.9L301.3 70.6L301.0 73.2L300.8 75.8L300.5 78.4L300.2 81.1L300.0 83.7L299.7 86.3L299.4 88.9L299.1 91.5L298.9 94.2L298.6 96.8L298.3 99.4L298.0 102.0L297.8 104.6L297.5 107.3L297.2 109.9L297.0 112.5L296.7 115.1L296.5 117.8L296.2 120.4L296.0 123.0L295.7 125.6L295.4 128.2L295.1 130.9L294.8 133.5L294.5 136.1L294.1 138.7L293.7 141.4L293.2 144.0L292.4 146.6L290.9 149.2" fill="none" stroke="#2e2620" stroke-width="2"/><path d="M305.9 26.0L305.4 28.6L304.9 31.2L304.4 33.9L303.9 36.5L303.4 39.1L302.9 41.7L302.3 44.4L301.8 47.0L301.3 49.6L300.8 52.2L300.3 54.8L299.9 57.5L299.4 60.1L298.9 62.7L298.4 65.3L298.0 67.9L297.5 70.6L297.0 73.2L296.5 75.8L296.2 78.4L295.7 81.1L295.2 83.7L294.8 86.3L294.3 88.9L293.8 91.5L293.4 94.2L293.0 96.8L292.5 99.4L292.1 102.0L291.6 104.6L291.1 107.3L290.6 109.9L290.1 112.5L289.6 115.1L289.1 117.8L288.6 120.4L288.1 123.0L287.7 125.6L287.0 128.2L286.5 130.9L286.1 133.5L285.6 136.1L285.1 138.7L284.7 141.4L284.2 144.0L283.7 146.6L283.3 149.2" fill="none" stroke="#7a6c60" stroke-width=".7" opacity=".6"/><path d="M322.0 26.0L319.9 28.6L318.8 31.2L318.3 33.9L317.8 36.5L317.2 39.1L316.7 41.7L316.2 44.4L315.7 47.0L315.3 49.6L314.8 52.2L314.3 54.8L313.7 57.5L313.2 60.1L312.7 62.7L312.2 65.3L311.7 67.9L311.2 70.6L310.7 73.2L310.2 75.8L309.7 78.4L309.2 81.1L308.7 83.7L308.2 86.3L307.7 88.9L307.2 91.5L306.8 94.2L306.3 96.8L305.8 99.4L305.1 102.0L304.7 104.6L304.2 107.3L303.7 109.9L303.1 112.5L302.7 115.1L302.2 117.8L301.7 120.4L301.2 123.0L300.6 125.6L300.1 128.2L299.6 130.9L299.0 133.5L298.4 136.1L297.6 138.7L297.0 141.4L296.2 144.0L295.2 146.6L294.1 149.2" fill="none" stroke="#7a6c60" stroke-width=".7" opacity=".6"/><path d="M316.9 26.0L316.5 28.6L316.1 31.2L315.7 33.9L315.5 36.5L315.1 39.1L314.8 41.7L314.5 44.4L314.1 47.0L313.8 49.6L313.4 52.2L313.2 54.8L312.8 57.5L312.4 60.1L312.2 62.7L311.8 65.3L311.4 67.9L311.2 70.6L310.8 73.2L310.6 75.8L310.2 78.4L310.0 81.1L309.6 83.7L309.3 86.3L309.0 88.9L308.6 91.5L308.4 94.2L308.0 96.8L307.7 99.4L307.4 102.0L307.0 104.6L306.6 107.3L306.4 109.9L306.0 112.5L305.8 115.1L305.5 117.8L305.1 120.4L304.9 123.0L304.5 125.6L304.2 128.2L303.8 130.9L303.4 133.5L302.8 136.1L302.3 138.7L301.6 141.4L300.5 144.0L298.9 146.6L297.3 149.2" fill="none" stroke="#7a6c60" stroke-width=".7" opacity=".6"/><path d="M306.1 26.0L305.9 28.6L305.8 31.2L305.5 33.9L305.4 36.5L305.3 39.1L305.0 41.7L304.9 44.4L304.7 47.0L304.5 49.6L304.3 52.2L304.2 54.8L303.9 57.5L303.8 60.1L303.5 62.7L303.3 65.3L303.1 67.9L302.8 70.6L302.6 73.2L302.3 75.8L302.1 78.4L301.8 81.1L301.6 83.7L301.3 86.3L301.1 88.9L300.7 91.5L300.5 94.2L300.2 96.8L299.9 99.4L299.6 102.0L299.2 104.6L299.0 107.3L298.6 109.9L298.4 112.5L298.0 115.1L297.8 117.8L297.4 120.4L297.0 123.0L296.6 125.6L296.3 128.2L295.9 130.9L295.5 133.5L295.2 136.1L294.7 138.7L294.2 141.4L293.7 144.0L293.1 146.6L292.3 149.2" fill="none" stroke="#7a6c60" stroke-width=".7" opacity=".6"/><path d="M312.4 26.0L310.9 28.6L310.2 31.2L310.0 33.9L309.6 36.5L309.3 39.1L309.0 41.7L308.7 44.4L308.5 47.0L308.1 49.6L307.9 52.2L307.5 54.8L307.2 57.5L306.9 60.1L306.6 62.7L306.3 65.3L306.0 67.9L305.6 70.6L305.4 73.2L305.0 75.8L304.8 78.4L304.4 81.1L304.2 83.7L303.8 86.3L303.4 88.9L303.2 91.5L302.8 94.2L302.6 96.8L302.2 99.4L301.8 102.0L301.5 104.6L301.1 107.3L300.7 109.9L300.2 112.5L299.7 115.1L299.2 117.8L298.6 120.4L298.1 123.0L297.6 125.6L297.1 128.2L296.6 130.9L296.3 133.5L296.0 136.1L295.8 138.7L295.7 141.4L295.7 144.0L295.7 146.6L295.7 149.2" fill="none" stroke="#7a6c60" stroke-width=".7" opacity=".6"/><path d="M311.6 26.0L310.9 28.6L310.3 31.2L309.7 33.9L309.2 36.5L308.6 39.1L308.0 41.7L307.4 44.4L306.8 47.0L306.3 49.6L305.6 52.2L305.1 54.8L304.5 57.5L304.0 60.1L303.5 62.7L303.1 65.3L302.6 67.9L302.1 70.6L301.6 73.2L301.1 75.8L300.6 78.4L300.2 81.1L299.7 83.7L299.2 86.3L298.9 88.9L298.4 91.5L298.0 94.2L297.5 96.8L297.1 99.4L296.8 102.0L296.3 104.6L295.9 107.3L295.5 109.9L295.0 112.5L294.6 115.1L294.1 117.8L293.6 120.4L293.1 123.0L292.6 125.6L292.2 128.2L291.8 130.9L291.5 133.5L291.1 136.1L290.9 138.7L290.6 141.4L290.5 144.0L290.5 146.6L290.5 149.2" fill="none" stroke="#7a6c60" stroke-width=".7" opacity=".6"/><text x="425" y="16" text-anchor="middle" fill="#2e2620">Bauchige Tasse</text><path d="M363.1 26.0L363.1 28.5L363.1 31.0L362.9 33.6L362.5 36.1L362.2 38.6L361.9 41.1L361.6 43.6L361.3 46.1L361.0 48.7L360.6 51.2L360.3 53.7L360.0 56.2L359.7 58.7L359.4 61.2L359.0 63.8L358.7 66.3L358.3 68.8L358.0 71.3L357.6 73.8L357.2 76.3L356.9 78.9L356.5 81.4L356.2 83.9L355.9 86.4L355.6 88.9L355.4 91.4L355.2 94.0L355.1 96.5L355.0 99.0L355.0 101.5L355.1 104.0L355.2 106.5L355.4 109.1L355.7 111.6L356.0 114.1L356.5 116.6L357.1 119.1L357.9 121.7L358.8 124.2L360.0 126.7L361.4 129.2L363.7 131.7L366.5 134.2L368.7 136.8L370.4 139.3L371.9 141.8L373.7 144.3L400.4 144.3L399.4 141.8L398.5 139.3L397.4 136.8L395.8 134.2L393.8 131.7L391.9 129.2L390.2 126.7L388.8 124.2L387.8 121.7L387.0 119.1L386.3 116.6L385.8 114.1L385.4 111.6L385.0 109.1L384.8 106.5L384.6 104.0L384.5 101.5L384.4 99.0L384.4 96.5L384.4 94.0L384.5 91.4L384.7 88.9L384.9 86.4L385.1 83.9L385.4 81.4L385.7 78.9L386.0 76.3L386.3 73.8L386.7 71.3L387.0 68.8L387.4 66.3L387.7 63.8L388.0 61.2L388.3 58.7L388.6 56.2L389.0 53.7L389.3 51.2L389.6 48.7L390.0 46.1L390.4 43.6L390.7 41.1L391.2 38.6L391.6 36.1L392.0 33.6L392.5 31.0L392.9 28.5L393.3 26.0Z" fill="#b5643c" opacity=".18"/><path d="M486.9 26.0L486.9 28.5L486.9 31.0L487.1 33.6L487.5 36.1L487.8 38.6L488.1 41.1L488.4 43.6L488.7 46.1L489.0 48.7L489.4 51.2L489.7 53.7L490.0 56.2L490.3 58.7L490.6 61.2L491.0 63.8L491.3 66.3L491.7 68.8L492.0 71.3L492.4 73.8L492.8 76.3L493.1 78.9L493.5 81.4L493.8 83.9L494.1 86.4L494.4 88.9L494.6 91.4L494.8 94.0L494.9 96.5L495.0 99.0L495.0 101.5L494.9 104.0L494.8 106.5L494.6 109.1L494.3 111.6L494.0 114.1L493.5 116.6L492.9 119.1L492.1 121.7L491.2 124.2L490.0 126.7L488.6 129.2L486.3 131.7L483.5 134.2L481.3 136.8L479.6 139.3L478.1 141.8L476.3 144.3L449.6 144.3L450.6 141.8L451.5 139.3L452.6 136.8L454.2 134.2L456.2 131.7L458.1 129.2L459.8 126.7L461.2 124.2L462.2 121.7L463.0 119.1L463.7 116.6L464.2 114.1L464.6 111.6L465.0 109.1L465.2 106.5L465.4 104.0L465.5 101.5L465.6 99.0L465.6 96.5L465.6 94.0L465.5 91.4L465.3 88.9L465.1 86.4L464.9 83.9L464.6 81.4L464.3 78.9L464.0 76.3L463.7 73.8L463.3 71.3L463.0 68.8L462.6 66.3L462.3 63.8L462.0 61.2L461.7 58.7L461.4 56.2L461.0 53.7L460.7 51.2L460.4 48.7L460.0 46.1L459.6 43.6L459.3 41.1L458.8 38.6L458.4 36.1L458.0 33.6L457.5 31.0L457.1 28.5L456.7 26.0Z" fill="#b5643c" opacity=".18"/><path d="M378.2 26.0L378.0 28.5L377.8 31.0L377.4 33.6L377.1 36.1L376.7 38.6L376.3 41.1L376.0 43.6L375.6 46.1L375.3 48.7L375.0 51.2L374.6 53.7L374.3 56.2L374.0 58.7L373.7 61.2L373.4 63.8L373.0 66.3L372.7 68.8L372.3 71.3L372.0 73.8L371.6 76.3L371.3 78.9L371.0 81.4L370.7 83.9L370.4 86.4L370.2 88.9L370.0 91.4L369.8 94.0L369.7 96.5L369.7 99.0L369.7 101.5L369.8 104.0L370.0 106.5L370.2 109.1L370.5 111.6L370.9 114.1L371.4 116.6L372.0 119.1L372.8 121.7L373.8 124.2L375.1 126.7L376.7 129.2L378.8 131.7L381.1 134.2L383.0 136.8L384.4 139.3L385.6 141.8L387.0 144.3" fill="none" stroke="#2e2620" stroke-width="2"/><path d="M471.8 26.0L472.0 28.5L472.2 31.0L472.6 33.6L472.9 36.1L473.3 38.6L473.7 41.1L474.0 43.6L474.4 46.1L474.7 48.7L475.0 51.2L475.4 53.7L475.7 56.2L476.0 58.7L476.3 61.2L476.6 63.8L477.0 66.3L477.3 68.8L477.7 71.3L478.0 73.8L478.4 76.3L478.7 78.9L479.0 81.4L479.3 83.9L479.6 86.4L479.8 88.9L480.0 91.4L480.2 94.0L480.3 96.5L480.3 99.0L480.3 101.5L480.2 104.0L480.0 106.5L479.8 109.1L479.5 111.6L479.1 114.1L478.6 116.6L478.0 119.1L477.2 121.7L476.2 124.2L474.9 126.7L473.3 129.2L471.2 131.7L468.9 134.2L467.0 136.8L465.6 139.3L464.4 141.8L463.0 144.3" fill="none" stroke="#2e2620" stroke-width="2"/><path d="M457.9 26.0L458.4 28.5L458.8 31.0L459.4 33.6L459.9 36.1L460.5 38.6L461.0 41.1L461.6 43.6L462.0 46.1L462.5 48.7L462.9 51.2L463.3 53.7L463.7 56.2L464.0 58.7L464.3 61.2L464.6 63.8L465.0 66.3L465.3 68.8L465.7 71.3L466.1 73.8L466.3 76.3L466.6 78.9L466.9 81.4L467.2 83.9L467.5 86.4L467.7 88.9L467.9 91.4L468.1 94.0L468.3 96.5L468.4 99.0L468.5 101.5L468.7 104.0L468.7 106.5L468.7 109.1L468.5 111.6L468.3 114.1L467.9 116.6L467.5 119.1L466.9 121.7L466.2 124.2L465.6 126.7L464.4 129.2L462.6 131.7L460.7 134.2L459.2 136.8L458.5 139.3L458.1 141.8L457.8 144.3" fill="none" stroke="#7a6c60" stroke-width=".7" opacity=".6"/><path d="M469.1 26.0L469.2 28.5L469.4 31.0L469.6 33.6L469.7 36.1L469.8 38.6L470.0 41.1L470.1 43.6L470.3 46.1L470.4 48.7L470.5 51.2L470.8 53.7L470.9 56.2L471.1 58.7L471.3 61.2L471.5 63.8L471.8 66.3L472.1 68.8L472.3 71.3L472.7 73.8L472.9 76.3L473.2 78.9L473.3 81.4L473.4 83.9L473.5 86.4L473.5 88.9L473.4 91.4L473.4 94.0L473.3 96.5L473.2 99.0L472.9 101.5L472.8 104.0L472.6 106.5L472.3 109.1L472.1 111.6L471.7 114.1L471.4 116.6L470.7 119.1L469.6 121.7L468.2 124.2L466.6 126.7L465.0 129.2L463.4 131.7L462.0 134.2L460.8 136.8L459.7 139.3L458.6 141.8L457.4 144.3" fill="none" stroke="#7a6c60" stroke-width=".7" opacity=".6"/><path d="M463.4 26.0L463.7 28.5L463.9 31.0L464.3 33.6L464.5 36.1L464.8 38.6L465.0 41.1L465.2 43.6L465.5 46.1L465.7 48.7L465.9 51.2L466.3 53.7L466.5 56.2L466.9 58.7L467.1 61.2L467.5 63.8L467.8 66.3L468.2 68.8L468.5 71.3L469.0 73.8L469.6 76.3L470.3 78.9L471.0 81.4L471.8 83.9L472.7 86.4L473.5 88.9L474.3 91.4L475.0 94.0L475.8 96.5L476.3 99.0L476.9 101.5L477.3 104.0L477.6 106.5L477.8 109.1L477.6 111.6L477.4 114.1L476.9 116.6L476.2 119.1L475.4 121.7L474.5 124.2L473.4 126.7L470.5 129.2L465.8 131.7L461.3 134.2L459.8 136.8L459.8 139.3L459.8 141.8L459.8 144.3" fill="none" stroke="#7a6c60" stroke-width=".7" opacity=".6"/><path d="M484.3 26.0L484.7 28.5L485.1 31.0L485.6 33.6L486.0 36.1L486.5 38.6L487.0 41.1L487.5 43.6L487.8 46.1L488.3 48.7L488.6 51.2L489.0 53.7L489.2 56.2L489.6 58.7L489.8 61.2L490.2 63.8L490.4 66.3L490.8 68.8L491.0 71.3L491.3 73.8L491.5 76.3L491.6 78.9L491.8 81.4L492.0 83.9L492.0 86.4L492.0 88.9L491.8 91.4L491.6 94.0L491.3 96.5L490.9 99.0L490.3 101.5L489.7 104.0L489.0 106.5L488.3 109.1L487.6 111.6L486.9 114.1L486.2 116.6L485.5 119.1L484.6 121.7L483.9 124.2L483.0 126.7L481.9 129.2L480.8 131.7L479.4 134.2L477.8 136.8L475.9 139.3L473.5 141.8L468.4 144.3" fill="none" stroke="#7a6c60" stroke-width=".7" opacity=".6"/><path d="M478.1 26.0L478.6 28.5L478.9 31.0L479.4 33.6L479.8 36.1L480.2 38.6L480.6 41.1L481.1 43.6L481.4 46.1L481.9 48.7L482.3 51.2L482.7 53.7L483.1 56.2L483.6 58.7L483.9 61.2L484.4 63.8L485.0 66.3L485.5 68.8L486.0 71.3L486.5 73.8L487.1 76.3L487.6 78.9L488.1 81.4L488.4 83.9L488.8 86.4L488.9 88.9L489.0 91.4L489.0 94.0L488.6 96.5L488.2 99.0L487.5 101.5L486.6 104.0L485.6 106.5L484.5 109.1L483.3 111.6L482.1 114.1L481.0 116.6L479.9 119.1L478.7 121.7L477.4 124.2L476.0 126.7L474.5 129.2L472.8 131.7L471.0 134.2L469.1 136.8L467.0 139.3L464.4 141.8L461.1 144.3" fill="none" stroke="#7a6c60" stroke-width=".7" opacity=".6"/><path d="M480.7 26.0L480.1 28.5L479.3 31.0L479.3 33.6L479.4 36.1L479.7 38.6L479.9 41.1L480.0 43.6L480.2 46.1L480.5 48.7L480.7 51.2L480.8 53.7L481.1 56.2L481.3 58.7L481.4 61.2L481.7 63.8L481.9 66.3L482.0 68.8L482.3 71.3L482.5 73.8L482.7 76.3L483.0 78.9L483.3 81.4L483.6 83.9L483.8 86.4L483.9 88.9L484.2 91.4L484.3 94.0L484.5 96.5L484.6 99.0L484.6 101.5L484.7 104.0L484.7 106.5L484.6 109.1L484.5 111.6L484.3 114.1L484.0 116.6L483.7 119.1L483.3 121.7L483.0 124.2L482.6 126.7L482.0 129.2L481.4 131.7L480.5 134.2L479.2 136.8L477.5 139.3L475.5 141.8L469.1 144.3" fill="none" stroke="#7a6c60" stroke-width=".7" opacity=".6"/><text x="595" y="16" text-anchor="middle" fill="#2e2620">Tulpenbecher</text><path d="M527.3 26.0L528.8 28.8L530.2 31.5L531.4 34.3L532.6 37.1L533.7 39.8L534.7 42.6L535.7 45.4L536.5 48.1L537.2 50.9L537.9 53.7L538.6 56.4L539.2 59.2L539.8 62.0L540.4 64.7L541.0 67.5L541.5 70.3L542.0 73.0L542.4 75.8L542.8 78.6L543.1 81.3L543.3 84.1L543.3 86.9L543.3 89.6L543.1 92.4L542.7 95.1L542.2 97.9L541.5 100.7L540.6 103.4L539.6 106.2L538.5 109.0L537.4 111.7L536.3 114.5L535.3 117.3L534.6 120.0L534.1 122.8L533.8 125.6L533.8 128.3L533.9 131.1L534.3 133.9L534.9 136.6L536.0 139.4L537.9 142.2L540.0 144.9L541.8 147.7L543.3 150.5L544.7 153.2L546.4 156.0L571.7 156.0L570.6 153.2L569.9 150.5L569.0 147.7L567.8 144.9L566.3 142.2L564.7 139.4L563.2 136.6L562.1 133.9L561.5 131.1L561.1 128.3L561.1 125.6L561.2 122.8L561.6 120.0L562.1 117.3L562.6 114.5L563.2 111.7L563.8 109.0L564.3 106.2L564.7 103.4L564.9 100.7L565.1 97.9L565.2 95.1L565.3 92.4L565.3 89.6L565.3 86.9L565.3 84.1L565.2 81.3L565.1 78.6L564.9 75.8L564.7 73.0L564.5 70.3L564.2 67.5L563.9 64.7L563.6 62.0L563.3 59.2L563.0 56.4L562.7 53.7L562.4 50.9L562.1 48.1L561.7 45.4L561.4 42.6L561.0 39.8L560.5 37.1L560.1 34.3L559.6 31.5L559.1 28.8L558.7 26.0Z" fill="#b5643c" opacity=".18"/><path d="M662.7 26.0L661.2 28.8L659.8 31.5L658.6 34.3L657.4 37.1L656.3 39.8L655.3 42.6L654.3 45.4L653.5 48.1L652.8 50.9L652.1 53.7L651.4 56.4L650.8 59.2L650.2 62.0L649.6 64.7L649.0 67.5L648.5 70.3L648.0 73.0L647.6 75.8L647.2 78.6L646.9 81.3L646.7 84.1L646.7 86.9L646.7 89.6L646.9 92.4L647.3 95.1L647.8 97.9L648.5 100.7L649.4 103.4L650.4 106.2L651.5 109.0L652.6 111.7L653.7 114.5L654.7 117.3L655.4 120.0L655.9 122.8L656.2 125.6L656.2 128.3L656.1 131.1L655.7 133.9L655.1 136.6L654.0 139.4L652.1 142.2L650.0 144.9L648.2 147.7L646.7 150.5L645.3 153.2L643.6 156.0L618.3 156.0L619.4 153.2L620.1 150.5L621.0 147.7L622.2 144.9L623.7 142.2L625.3 139.4L626.8 136.6L627.9 133.9L628.5 131.1L628.9 128.3L628.9 125.6L628.8 122.8L628.4 120.0L627.9 117.3L627.4 114.5L626.8 111.7L626.2 109.0L625.7 106.2L625.3 103.4L625.1 100.7L624.9 97.9L624.8 95.1L624.7 92.4L624.7 89.6L624.7 86.9L624.7 84.1L624.8 81.3L624.9 78.6L625.1 75.8L625.3 73.0L625.5 70.3L625.8 67.5L626.1 64.7L626.4 62.0L626.7 59.2L627.0 56.4L627.3 53.7L627.6 50.9L627.9 48.1L628.3 45.4L628.6 42.6L629.0 39.8L629.5 37.1L629.9 34.3L630.4 31.5L630.9 28.8L631.3 26.0Z" fill="#b5643c" opacity=".18"/><path d="M543.0 26.0L544.0 28.8L544.9 31.5L545.8 34.3L546.6 37.1L547.3 39.8L548.1 42.6L548.7 45.4L549.3 48.1L549.8 50.9L550.3 53.7L550.8 56.4L551.3 59.2L551.7 62.0L552.2 64.7L552.6 67.5L553.0 70.3L553.3 73.0L553.7 75.8L553.9 78.6L554.1 81.3L554.3 84.1L554.3 86.9L554.3 89.6L554.2 92.4L554.0 95.1L553.7 97.9L553.2 100.7L552.6 103.4L552.0 106.2L551.2 109.0L550.3 111.7L549.5 114.5L548.7 117.3L548.1 120.0L547.7 122.8L547.4 125.6L547.4 128.3L547.7 131.1L548.2 133.9L549.1 136.6L550.4 139.4L552.1 142.2L553.9 144.9L555.4 147.7L556.6 150.5L557.7 153.2L559.1 156.0" fill="none" stroke="#2e2620" stroke-width="2"/><path d="M647.0 26.0L646.0 28.8L645.1 31.5L644.2 34.3L643.4 37.1L642.7 39.8L641.9 42.6L641.3 45.4L640.7 48.1L640.2 50.9L639.7 53.7L639.2 56.4L638.7 59.2L638.3 62.0L637.8 64.7L637.4 67.5L637.0 70.3L636.7 73.0L636.3 75.8L636.1 78.6L635.9 81.3L635.7 84.1L635.7 86.9L635.7 89.6L635.8 92.4L636.0 95.1L636.3 97.9L636.8 100.7L637.4 103.4L638.0 106.2L638.8 109.0L639.7 111.7L640.5 114.5L641.3 117.3L641.9 120.0L642.3 122.8L642.6 125.6L642.6 128.3L642.3 131.1L641.8 133.9L640.9 136.6L639.6 139.4L637.9 142.2L636.1 144.9L634.6 147.7L633.4 150.5L632.3 153.2L630.9 156.0" fill="none" stroke="#2e2620" stroke-width="2"/><path d="M646.5 26.0L645.2 28.8L643.6 31.5L642.5 34.3L641.5 37.1L640.6 39.8L639.7 42.6L639.1 45.4L638.4 48.1L638.0 50.9L637.5 53.7L637.1 56.4L636.7 59.2L636.3 62.0L636.1 64.7L635.7 67.5L635.6 70.3L635.3 73.0L635.2 75.8L635.2 78.6L635.2 81.3L635.4 84.1L635.8 86.9L636.3 89.6L636.9 92.4L637.6 95.1L638.4 97.9L639.1 100.7L639.9 103.4L640.6 106.2L641.3 109.0L641.9 111.7L642.3 114.5L642.7 117.3L642.8 120.0L642.8 122.8L642.7 125.6L642.3 128.3L641.9 131.1L641.4 133.9L640.9 136.6L640.2 139.4L639.5 142.2L638.8 144.9L638.0 147.7L637.0 150.5L635.6 153.2L634.3 156.0" fill="none" stroke="#7a6c60" stroke-width=".7" opacity=".6"/><path d="M661.2 26.0L658.2 28.8L656.8 31.5L655.7 34.3L654.7 37.1L653.6 39.8L652.6 42.6L651.7 45.4L650.8 48.1L650.0 50.9L649.2 53.7L648.4 56.4L647.5 59.2L646.7 62.0L646.0 64.7L645.2 67.5L644.5 70.3L643.9 73.0L643.4 75.8L643.1 78.6L642.8 81.3L643.0 84.1L643.2 86.9L643.6 89.6L644.3 92.4L645.2 95.1L646.1 97.9L647.0 100.7L648.2 103.4L649.2 106.2L650.3 109.0L651.3 111.7L652.2 114.5L653.1 117.3L653.8 120.0L654.3 122.8L654.7 125.6L654.8 128.3L654.1 131.1L652.5 133.9L650.4 136.6L648.0 139.4L645.7 142.2L643.9 144.9L642.8 147.7L642.8 150.5L642.8 153.2L642.8 156.0" fill="none" stroke="#7a6c60" stroke-width=".7" opacity=".6"/><path d="M657.0 26.0L656.1 28.8L655.2 31.5L654.3 34.3L653.4 37.1L652.5 39.8L651.7 42.6L650.8 45.4L650.1 48.1L649.5 50.9L648.8 53.7L648.2 56.4L647.5 59.2L646.9 62.0L646.2 64.7L645.7 67.5L645.0 70.3L644.7 73.0L644.3 75.8L643.9 78.6L643.6 81.3L643.5 84.1L643.5 86.9L643.9 89.6L644.5 92.4L645.6 95.1L646.7 97.9L648.0 100.7L649.5 103.4L651.0 106.2L652.3 109.0L653.6 111.7L654.8 114.5L655.6 117.3L656.2 120.0L656.4 122.8L656.4 125.6L656.1 128.3L656.0 131.1L655.6 133.9L655.1 136.6L654.4 139.4L653.8 142.2L652.9 144.9L651.8 147.7L650.6 150.5L649.0 153.2L643.6 156.0" fill="none" stroke="#7a6c60" stroke-width=".7" opacity=".6"/><path d="M641.0 26.0L640.6 28.8L640.2 31.5L639.7 34.3L639.2 37.1L638.8 39.8L638.3 42.6L637.9 45.4L637.6 48.1L637.4 50.9L637.1 53.7L636.9 56.4L636.6 59.2L636.3 62.0L636.2 64.7L636.0 67.5L635.8 70.3L635.6 73.0L635.4 75.8L635.3 78.6L635.2 81.3L635.0 84.1L635.0 86.9L635.0 89.6L634.9 92.4L635.3 95.1L635.8 97.9L636.7 100.7L637.6 103.4L638.8 106.2L639.9 109.0L640.8 111.7L641.4 114.5L641.9 117.3L641.9 120.0L641.4 122.8L640.4 125.6L638.8 128.3L637.0 131.1L635.0 133.9L633.1 136.6L631.1 139.4L629.5 142.2L628.0 144.9L627.0 147.7L626.1 150.5L625.3 153.2L624.4 156.0" fill="none" stroke="#7a6c60" stroke-width=".7" opacity=".6"/><path d="M634.1 26.0L633.2 28.8L632.4 31.5L631.9 34.3L631.5 37.1L631.0 39.8L630.6 42.6L630.2 45.4L630.0 48.1L629.7 50.9L629.5 53.7L629.2 56.4L628.9 59.2L628.7 62.0L628.5 64.7L628.3 67.5L628.0 70.3L627.9 73.0L627.6 75.8L627.5 78.6L627.4 81.3L627.2 84.1L627.1 86.9L627.0 89.6L627.0 92.4L626.9 95.1L626.9 97.9L626.9 100.7L627.1 103.4L627.5 106.2L628.1 109.0L628.8 111.7L629.6 114.5L630.4 117.3L631.1 120.0L631.9 122.8L632.6 125.6L633.1 128.3L633.4 131.1L633.5 133.9L632.7 136.6L630.9 139.4L628.4 142.2L625.8 144.9L623.7 147.7L622.4 150.5L621.4 153.2L620.4 156.0" fill="none" stroke="#7a6c60" stroke-width=".7" opacity=".6"/><path d="M653.6 26.0L651.7 28.8L649.7 31.5L648.0 34.3L646.7 37.1L645.4 39.8L644.5 42.6L644.0 45.4L643.5 48.1L643.0 50.9L642.6 53.7L642.2 56.4L641.8 59.2L641.4 62.0L641.1 64.7L640.9 67.5L640.6 70.3L640.5 73.0L640.4 75.8L640.4 78.6L640.5 81.3L640.6 84.1L640.9 86.9L641.3 89.6L641.7 92.4L642.1 95.1L642.5 97.9L643.0 100.7L643.4 103.4L643.8 106.2L644.1 109.0L644.5 111.7L644.7 114.5L644.9 117.3L644.9 120.0L644.7 122.8L644.0 125.6L643.1 128.3L641.9 131.1L640.5 133.9L639.1 136.6L637.6 139.4L636.2 142.2L635.0 144.9L634.1 147.7L633.4 150.5L632.7 153.2L632.0 156.0" fill="none" stroke="#7a6c60" stroke-width=".7" opacity=".6"/><text x="85" y="206" text-anchor="middle" fill="#2e2620">Schüssel</text><path d="M15.0 216.0L15.4 216.9L15.7 217.8L15.7 218.6L15.8 219.5L15.9 220.4L16.1 221.3L16.2 222.2L16.3 223.0L16.5 223.9L16.7 224.8L16.9 225.7L17.2 226.6L17.4 227.4L17.7 228.3L18.0 229.2L18.3 230.1L18.6 231.0L19.0 231.9L19.4 232.7L19.8 233.6L20.3 234.5L20.7 235.4L21.2 236.3L21.8 237.1L22.3 238.0L22.9 238.9L23.6 239.8L24.3 240.7L25.0 241.5L25.8 242.4L26.6 243.3L27.5 244.2L28.5 245.1L29.5 245.9L30.6 246.8L31.8 247.7L33.1 248.6L34.6 249.5L36.3 250.3L38.3 251.2L41.7 252.1L46.3 253.0L50.7 253.9L53.2 254.7L54.2 255.6L54.6 256.5L55.0 257.4L73.1 257.4L73.0 256.5L72.8 255.6L72.7 254.7L72.9 253.9L73.3 253.0L72.7 252.1L70.3 251.2L66.4 250.3L63.2 249.5L61.5 248.6L60.4 247.7L59.5 246.8L58.6 245.9L57.9 245.1L57.2 244.2L56.5 243.3L55.9 242.4L55.4 241.5L54.8 240.7L54.4 239.8L53.9 238.9L53.5 238.0L53.1 237.1L52.7 236.3L52.3 235.4L52.0 234.5L51.7 233.6L51.4 232.7L51.1 231.9L50.9 231.0L50.7 230.1L50.5 229.2L50.3 228.3L50.1 227.4L49.9 226.6L49.8 225.7L49.6 224.8L49.5 223.9L49.4 223.0L49.3 222.2L49.2 221.3L49.2 220.4L49.1 219.5L49.1 218.6L49.0 217.8L49.0 216.9L48.9 216.0Z" fill="#b5643c" opacity=".18"/><path d="M155.0 216.0L154.6 216.9L154.3 217.8L154.3 218.6L154.2 219.5L154.1 220.4L153.9 221.3L153.8 222.2L153.7 223.0L153.5 223.9L153.3 224.8L153.1 225.7L152.8 226.6L152.6 227.4L152.3 228.3L152.0 229.2L151.7 230.1L151.4 231.0L151.0 231.9L150.6 232.7L150.2 233.6L149.7 234.5L149.3 235.4L148.8 236.3L148.2 237.1L147.7 238.0L147.1 238.9L146.4 239.8L145.7 240.7L145.0 241.5L144.2 242.4L143.4 243.3L142.5 244.2L141.5 245.1L140.5 245.9L139.4 246.8L138.2 247.7L136.9 248.6L135.4 249.5L133.7 250.3L131.7 251.2L128.3 252.1L123.7 253.0L119.3 253.9L116.8 254.7L115.8 255.6L115.4 256.5L115.0 257.4L96.9 257.4L97.0 256.5L97.2 255.6L97.3 254.7L97.1 253.9L96.7 253.0L97.3 252.1L99.7 251.2L103.6 250.3L106.8 249.5L108.5 248.6L109.6 247.7L110.5 246.8L111.4 245.9L112.1 245.1L112.8 244.2L113.5 243.3L114.1 242.4L114.6 241.5L115.2 240.7L115.6 239.8L116.1 238.9L116.5 238.0L116.9 237.1L117.3 236.3L117.7 235.4L118.0 234.5L118.3 233.6L118.6 232.7L118.9 231.9L119.1 231.0L119.3 230.1L119.5 229.2L119.7 228.3L119.9 227.4L120.1 226.6L120.2 225.7L120.4 224.8L120.5 223.9L120.6 223.0L120.7 222.2L120.8 221.3L120.8 220.4L120.9 219.5L120.9 218.6L121.0 217.8L121.0 216.9L121.1 216.0Z" fill="#b5643c" opacity=".18"/><path d="M31.9 216.0L32.2 216.9L32.4 217.8L32.4 218.6L32.5 219.5L32.6 220.4L32.7 221.3L32.8 222.2L32.9 223.0L33.0 223.9L33.2 224.8L33.3 225.7L33.5 226.6L33.8 227.4L34.0 228.3L34.2 229.2L34.5 230.1L34.8 231.0L35.1 231.9L35.4 232.7L35.8 233.6L36.1 234.5L36.5 235.4L37.0 236.3L37.4 237.1L37.9 238.0L38.4 238.9L39.0 239.8L39.5 240.7L40.2 241.5L40.8 242.4L41.6 243.3L42.3 244.2L43.2 245.1L44.1 245.9L45.0 246.8L46.1 247.7L47.3 248.6L48.9 249.5L51.3 250.3L54.3 251.2L57.2 252.1L59.8 253.0L61.8 253.9L63.0 254.7L63.5 255.6L63.8 256.5L64.0 257.4" fill="none" stroke="#2e2620" stroke-width="2"/><path d="M138.1 216.0L137.8 216.9L137.6 217.8L137.6 218.6L137.5 219.5L137.4 220.4L137.3 221.3L137.2 222.2L137.1 223.0L137.0 223.9L136.8 224.8L136.7 225.7L136.5 226.6L136.2 227.4L136.0 228.3L135.8 229.2L135.5 230.1L135.2 231.0L134.9 231.9L134.6 232.7L134.2 233.6L133.9 234.5L133.5 235.4L133.0 236.3L132.6 237.1L132.1 238.0L131.6 238.9L131.0 239.8L130.5 240.7L129.8 241.5L129.2 242.4L128.4 243.3L127.7 244.2L126.8 245.1L125.9 245.9L125.0 246.8L123.9 247.7L122.7 248.6L121.1 249.5L118.7 250.3L115.7 251.2L112.8 252.1L110.2 253.0L108.2 253.9L107.0 254.7L106.5 255.6L106.2 256.5L106.0 257.4" fill="none" stroke="#2e2620" stroke-width="2"/><path d="M122.0 216.0L122.4 216.9L122.7 217.8L123.0 218.6L123.0 219.5L122.9 220.4L122.8 221.3L122.7 222.2L122.6 223.0L122.5 223.9L122.3 224.8L122.1 225.7L122.0 226.6L121.8 227.4L121.5 228.3L121.3 229.2L121.1 230.1L120.9 231.0L120.6 231.9L120.3 232.7L120.1 233.6L119.7 234.5L119.4 235.4L119.1 236.3L118.7 237.1L118.3 238.0L117.9 238.9L117.4 239.8L117.0 240.7L116.5 241.5L116.0 242.4L115.5 243.3L114.9 244.2L114.3 245.1L113.6 245.9L112.9 246.8L112.2 247.7L111.2 248.6L110.2 249.5L108.4 250.3L106.1 251.2L104.2 252.1L103.7 253.0L103.5 253.9L103.3 254.7L103.1 255.6L102.9 256.5L102.7 257.4" fill="none" stroke="#7a6c60" stroke-width=".7" opacity=".6"/><path d="M137.3 216.0L136.7 216.9L136.4 217.8L136.6 218.6L136.6 219.5L136.6 220.4L136.5 221.3L136.4 222.2L136.2 223.0L136.1 223.9L135.9 224.8L135.7 225.7L135.5 226.6L135.3 227.4L135.1 228.3L134.9 229.2L134.6 230.1L134.3 231.0L134.0 231.9L133.6 232.7L133.3 233.6L132.9 234.5L132.5 235.4L132.1 236.3L131.6 237.1L131.1 238.0L130.6 238.9L130.0 239.8L129.4 240.7L128.8 241.5L128.2 242.4L127.4 243.3L126.7 244.2L125.8 245.1L125.0 245.9L124.0 246.8L123.0 247.7L122.0 248.6L120.7 249.5L119.3 250.3L117.5 251.2L114.1 252.1L109.9 253.0L106.8 253.9L105.7 254.7L105.3 255.6L105.2 256.5L105.2 257.4" fill="none" stroke="#7a6c60" stroke-width=".7" opacity=".6"/><path d="M148.2 216.0L148.6 216.9L148.9 217.8L149.2 218.6L149.2 219.5L149.1 220.4L148.9 221.3L148.7 222.2L148.5 223.0L148.4 223.9L148.1 224.8L147.9 225.7L147.6 226.6L147.2 227.4L146.9 228.3L146.6 229.2L146.2 230.1L145.8 231.0L145.3 231.9L144.8 232.7L144.3 233.6L143.7 234.5L143.1 235.4L142.5 236.3L141.8 237.1L141.1 238.0L140.3 238.9L139.5 239.8L138.6 240.7L137.7 241.5L136.7 242.4L135.7 243.3L134.5 244.2L133.3 245.1L131.9 245.9L130.6 246.8L129.0 247.7L127.3 248.6L125.1 249.5L122.0 250.3L116.2 251.2L110.3 252.1L107.7 253.0L107.3 253.9L107.1 254.7L106.8 255.6L106.6 256.5L106.4 257.4" fill="none" stroke="#7a6c60" stroke-width=".7" opacity=".6"/><path d="M128.2 216.0L127.6 216.9L127.5 217.8L127.5 218.6L127.5 219.5L127.5 220.4L127.4 221.3L127.3 222.2L127.2 223.0L127.0 223.9L126.9 224.8L126.7 225.7L126.6 226.6L126.3 227.4L126.1 228.3L125.9 229.2L125.7 230.1L125.4 231.0L125.1 231.9L124.8 232.7L124.4 233.6L124.1 234.5L123.7 235.4L123.2 236.3L122.8 237.1L122.3 238.0L121.8 238.9L121.3 239.8L120.6 240.7L120.0 241.5L119.4 242.4L118.6 243.3L117.8 244.2L117.0 245.1L116.0 245.9L115.1 246.8L114.0 247.7L112.7 248.6L111.0 249.5L107.8 250.3L103.0 251.2L99.4 252.1L98.9 253.0L98.9 253.9L98.9 254.7L98.9 255.6L98.8 256.5L98.8 257.4" fill="none" stroke="#7a6c60" stroke-width=".7" opacity=".6"/><path d="M143.0 216.0L141.8 216.9L140.9 217.8L140.6 218.6L140.5 219.5L140.4 220.4L140.3 221.3L140.3 222.2L140.2 223.0L140.1 223.9L140.0 224.8L139.8 225.7L139.6 226.6L139.4 227.4L139.2 228.3L139.0 229.2L138.7 230.1L138.4 231.0L138.1 231.9L137.7 232.7L137.3 233.6L136.9 234.5L136.4 235.4L135.9 236.3L135.3 237.1L134.7 238.0L134.0 238.9L133.3 239.8L132.6 240.7L131.8 241.5L130.9 242.4L129.8 243.3L128.7 244.2L127.6 245.1L126.3 245.9L124.9 246.8L123.1 247.7L120.8 248.6L115.8 249.5L108.3 250.3L103.0 251.2L102.3 252.1L102.1 253.0L102.0 253.9L101.9 254.7L101.9 255.6L101.8 256.5L101.8 257.4" fill="none" stroke="#7a6c60" stroke-width=".7" opacity=".6"/><path d="M133.4 216.0L133.1 216.9L132.7 217.8L132.5 218.6L132.3 219.5L132.3 220.4L132.2 221.3L132.1 222.2L132.1 223.0L132.0 223.9L131.9 224.8L131.7 225.7L131.5 226.6L131.4 227.4L131.1 228.3L130.9 229.2L130.7 230.1L130.5 231.0L130.2 231.9L129.9 232.7L129.7 233.6L129.4 234.5L129.0 235.4L128.7 236.3L128.3 237.1L127.9 238.0L127.5 238.9L127.0 239.8L126.5 240.7L126.0 241.5L125.4 242.4L124.8 243.3L124.2 244.2L123.5 245.1L122.7 245.9L122.0 246.8L121.1 247.7L120.1 248.6L118.9 249.5L117.1 250.3L113.9 251.2L110.7 252.1L109.5 253.0L109.2 253.9L109.0 254.7L108.8 255.6L108.4 256.5L108.1 257.4" fill="none" stroke="#7a6c60" stroke-width=".7" opacity=".6"/><text x="255" y="206" text-anchor="middle" fill="#2e2620">Offene Schale</text><path d="M185.0 216.0L186.2 216.6L187.3 217.2L188.2 217.9L189.1 218.5L190.0 219.1L190.8 219.7L191.8 220.4L192.7 221.0L193.6 221.6L194.5 222.2L195.5 222.9L196.4 223.5L197.4 224.1L198.4 224.7L199.4 225.4L200.4 226.0L201.4 226.6L202.5 227.2L203.6 227.9L204.6 228.5L205.7 229.1L206.9 229.7L208.0 230.4L209.2 231.0L210.3 231.6L211.5 232.2L212.7 232.9L214.0 233.5L215.2 234.1L216.5 234.7L217.7 235.4L219.0 236.0L220.3 236.6L221.6 237.2L222.9 237.9L224.2 238.5L225.6 239.1L226.9 239.7L228.1 240.4L229.3 241.0L230.4 241.6L231.2 242.2L231.9 242.9L232.3 243.5L232.6 244.1L232.8 244.7L233.0 245.3L248.3 245.3L248.2 244.7L248.1 244.1L248.0 243.5L247.9 242.9L247.7 242.2L247.4 241.6L246.9 241.0L246.2 240.4L245.3 239.7L244.5 239.1L243.7 238.5L243.0 237.9L242.2 237.2L241.4 236.6L240.7 236.0L240.0 235.4L239.3 234.7L238.6 234.1L238.0 233.5L237.3 232.9L236.6 232.2L236.0 231.6L235.3 231.0L234.7 230.4L234.0 229.7L233.4 229.1L232.8 228.5L232.1 227.9L231.5 227.2L230.9 226.6L230.3 226.0L229.7 225.4L229.1 224.7L228.5 224.1L227.9 223.5L227.3 222.9L226.8 222.2L226.2 221.6L225.7 221.0L225.1 220.4L224.6 219.7L224.1 219.1L223.6 218.5L223.1 217.9L222.6 217.2L222.1 216.6L221.6 216.0Z" fill="#b5643c" opacity=".18"/><path d="M325.0 216.0L323.8 216.6L322.7 217.2L321.8 217.9L320.9 218.5L320.0 219.1L319.2 219.7L318.2 220.4L317.3 221.0L316.4 221.6L315.5 222.2L314.5 222.9L313.6 223.5L312.6 224.1L311.6 224.7L310.6 225.4L309.6 226.0L308.6 226.6L307.5 227.2L306.4 227.9L305.4 228.5L304.3 229.1L303.1 229.7L302.0 230.4L300.8 231.0L299.7 231.6L298.5 232.2L297.3 232.9L296.0 233.5L294.8 234.1L293.5 234.7L292.3 235.4L291.0 236.0L289.7 236.6L288.4 237.2L287.1 237.9L285.8 238.5L284.4 239.1L283.1 239.7L281.9 240.4L280.7 241.0L279.6 241.6L278.8 242.2L278.1 242.9L277.7 243.5L277.4 244.1L277.2 244.7L277.0 245.3L261.7 245.3L261.8 244.7L261.9 244.1L262.0 243.5L262.1 242.9L262.3 242.2L262.6 241.6L263.1 241.0L263.8 240.4L264.7 239.7L265.5 239.1L266.3 238.5L267.0 237.9L267.8 237.2L268.6 236.6L269.3 236.0L270.0 235.4L270.7 234.7L271.4 234.1L272.0 233.5L272.7 232.9L273.4 232.2L274.0 231.6L274.7 231.0L275.3 230.4L276.0 229.7L276.6 229.1L277.2 228.5L277.9 227.9L278.5 227.2L279.1 226.6L279.7 226.0L280.3 225.4L280.9 224.7L281.5 224.1L282.1 223.5L282.7 222.9L283.2 222.2L283.8 221.6L284.3 221.0L284.9 220.4L285.4 219.7L285.9 219.1L286.4 218.5L286.9 217.9L287.4 217.2L287.9 216.6L288.4 216.0Z" fill="#b5643c" opacity=".18"/><path d="M203.3 216.0L204.2 216.6L205.0 217.2L205.7 217.9L206.3 218.5L207.0 219.1L207.7 219.7L208.4 220.4L209.2 221.0L209.9 221.6L210.6 222.2L211.4 222.9L212.2 223.5L212.9 224.1L213.7 224.7L214.5 225.4L215.3 226.0L216.2 226.6L217.0 227.2L217.8 227.9L218.7 228.5L219.6 229.1L220.4 229.7L221.3 230.4L222.2 231.0L223.2 231.6L224.1 232.2L225.0 232.9L226.0 233.5L226.9 234.1L227.9 234.7L228.9 235.4L229.9 236.0L230.9 236.6L231.9 237.2L232.9 237.9L234.0 238.5L235.0 239.1L236.1 239.7L237.2 240.4L238.1 241.0L238.9 241.6L239.5 242.2L239.9 242.9L240.2 243.5L240.4 244.1L240.5 244.7L240.7 245.3" fill="none" stroke="#2e2620" stroke-width="2"/><path d="M306.7 216.0L305.8 216.6L305.0 217.2L304.3 217.9L303.7 218.5L303.0 219.1L302.3 219.7L301.6 220.4L300.8 221.0L300.1 221.6L299.4 222.2L298.6 222.9L297.8 223.5L297.1 224.1L296.3 224.7L295.5 225.4L294.7 226.0L293.8 226.6L293.0 227.2L292.2 227.9L291.3 228.5L290.4 229.1L289.6 229.7L288.7 230.4L287.8 231.0L286.8 231.6L285.9 232.2L285.0 232.9L284.0 233.5L283.1 234.1L282.1 234.7L281.1 235.4L280.1 236.0L279.1 236.6L278.1 237.2L277.1 237.9L276.0 238.5L275.0 239.1L273.9 239.7L272.8 240.4L271.9 241.0L271.1 241.6L270.5 242.2L270.1 242.9L269.8 243.5L269.6 244.1L269.5 244.7L269.3 245.3" fill="none" stroke="#2e2620" stroke-width="2"/><path d="M298.2 216.0L297.2 216.6L296.1 217.2L295.1 217.9L294.3 218.5L293.5 219.1L292.9 219.7L292.2 220.4L291.6 221.0L290.9 221.6L290.2 222.2L289.5 222.9L288.8 223.5L288.2 224.1L287.5 224.7L286.8 225.4L286.1 226.0L285.5 226.6L284.8 227.2L284.1 227.9L283.5 228.5L282.8 229.1L282.1 229.7L281.5 230.4L280.8 231.0L280.2 231.6L279.5 232.2L278.9 232.9L278.2 233.5L277.5 234.1L276.9 234.7L276.2 235.4L275.6 236.0L275.0 236.6L274.3 237.2L273.7 237.9L273.0 238.5L272.4 239.1L271.7 239.7L271.1 240.4L270.5 241.0L269.9 241.6L269.5 242.2L269.1 242.9L268.6 243.5L268.1 244.1L267.8 244.7L267.7 245.3" fill="none" stroke="#7a6c60" stroke-width=".7" opacity=".6"/><path d="M296.9 216.0L297.0 216.6L297.1 217.2L297.2 217.9L297.1 218.5L296.9 219.1L296.4 219.7L295.9 220.4L295.4 221.0L294.9 221.6L294.4 222.2L293.9 222.9L293.4 223.5L292.8 224.1L292.2 224.7L291.6 225.4L291.0 226.0L290.3 226.6L289.6 227.2L288.9 227.9L288.1 228.5L287.4 229.1L286.6 229.7L285.8 230.4L284.9 231.0L284.0 231.6L283.1 232.2L282.2 232.9L281.3 233.5L280.3 234.1L279.3 234.7L278.3 235.4L277.2 236.0L276.2 236.6L275.1 237.2L273.9 237.9L272.8 238.5L271.6 239.1L270.4 239.7L269.0 240.4L267.8 241.0L267.3 241.6L267.1 242.2L267.0 242.9L266.9 243.5L266.8 244.1L266.8 244.7L266.7 245.3" fill="none" stroke="#7a6c60" stroke-width=".7" opacity=".6"/><path d="M308.5 216.0L308.1 216.6L307.7 217.2L307.3 217.9L306.7 218.5L305.9 219.1L305.1 219.7L304.2 220.4L303.3 221.0L302.4 221.6L301.6 222.2L300.7 222.9L299.8 223.5L298.9 224.1L298.0 224.7L297.1 225.4L296.1 226.0L295.2 226.6L294.2 227.2L293.2 227.9L292.2 228.5L291.2 229.1L290.2 229.7L289.2 230.4L288.1 231.0L287.1 231.6L286.0 232.2L284.9 232.9L283.8 233.5L282.7 234.1L281.6 234.7L280.5 235.4L279.3 236.0L278.2 236.6L277.0 237.2L275.8 237.9L274.6 238.5L273.4 239.1L272.2 239.7L270.7 240.4L269.3 241.0L268.4 241.6L268.3 242.2L268.3 242.9L268.2 243.5L268.2 244.1L268.1 244.7L268.1 245.3" fill="none" stroke="#7a6c60" stroke-width=".7" opacity=".6"/><path d="M305.6 216.0L305.4 216.6L305.2 217.2L305.0 217.9L304.6 218.5L304.0 219.1L303.1 219.7L302.3 220.4L301.5 221.0L300.7 221.6L299.9 222.2L299.1 222.9L298.3 223.5L297.5 224.1L296.7 224.7L295.9 225.4L295.1 226.0L294.2 226.6L293.4 227.2L292.5 227.9L291.6 228.5L290.7 229.1L289.8 229.7L288.9 230.4L288.0 231.0L287.0 231.6L286.1 232.2L285.1 232.9L284.1 233.5L283.1 234.1L282.1 234.7L281.1 235.4L280.1 236.0L279.1 236.6L278.0 237.2L277.0 237.9L275.9 238.5L274.8 239.1L273.8 239.7L272.8 240.4L271.8 241.0L271.2 241.6L270.9 242.2L270.7 242.9L270.6 243.5L270.5 244.1L270.4 244.7L270.4 245.3" fill="none" stroke="#7a6c60" stroke-width=".7" opacity=".6"/><path d="M302.6 216.0L301.2 216.6L300.1 217.2L299.3 217.9L298.4 218.5L297.6 219.1L296.8 219.7L296.0 220.4L295.3 221.0L294.5 221.6L293.7 222.2L292.9 222.9L292.2 223.5L291.4 224.1L290.6 224.7L289.9 225.4L289.1 226.0L288.4 226.6L287.6 227.2L286.9 227.9L286.1 228.5L285.4 229.1L284.7 229.7L284.0 230.4L283.3 231.0L282.5 231.6L281.8 232.2L281.1 232.9L280.4 233.5L279.7 234.1L279.1 234.7L278.4 235.4L277.7 236.0L277.0 236.6L276.2 237.2L275.5 237.9L274.9 238.5L274.4 239.1L274.0 239.7L273.6 240.4L273.3 241.0L273.0 241.6L272.7 242.2L272.4 242.9L272.2 243.5L272.0 244.1L271.8 244.7L271.6 245.3" fill="none" stroke="#7a6c60" stroke-width=".7" opacity=".6"/><path d="M308.2 216.0L307.6 216.6L307.0 217.2L306.4 217.9L305.7 218.5L304.9 219.1L304.1 219.7L303.2 220.4L302.4 221.0L301.6 221.6L300.8 222.2L299.9 222.9L299.1 223.5L298.2 224.1L297.4 224.7L296.5 225.4L295.6 226.0L294.8 226.6L293.9 227.2L293.0 227.9L292.1 228.5L291.2 229.1L290.3 229.7L289.4 230.4L288.5 231.0L287.5 231.6L286.6 232.2L285.7 232.9L284.7 233.5L283.8 234.1L282.8 234.7L281.8 235.4L280.9 236.0L279.9 236.6L278.9 237.2L277.9 237.9L276.9 238.5L275.8 239.1L274.8 239.7L273.9 240.4L273.0 241.0L272.1 241.6L271.4 242.2L270.8 242.9L270.4 243.5L270.2 244.1L270.1 244.7L270.0 245.3" fill="none" stroke="#7a6c60" stroke-width=".7" opacity=".6"/><text x="425" y="206" text-anchor="middle" fill="#2e2620">Kugelvase / Flasche</text><path d="M381.5 216.0L385.9 218.8L389.8 221.5L392.6 224.3L394.3 227.1L395.2 229.8L395.7 232.6L395.8 235.4L395.4 238.1L394.3 240.9L392.4 243.7L389.7 246.4L386.4 249.2L382.8 252.0L379.3 254.7L376.3 257.5L373.7 260.3L371.4 263.0L369.3 265.8L367.4 268.6L365.6 271.3L363.9 274.1L362.5 276.9L361.3 279.6L360.5 282.4L359.9 285.1L359.4 287.9L359.0 290.7L358.8 293.4L358.7 296.2L358.7 299.0L358.8 301.7L359.1 304.5L359.5 307.3L360.1 310.0L360.8 312.8L361.6 315.6L362.5 318.3L363.6 321.1L365.1 323.9L366.9 326.6L369.3 329.4L372.6 332.2L375.8 334.9L378.7 337.7L380.8 340.5L382.6 343.2L384.2 346.0L410.9 346.0L410.4 343.2L409.8 340.5L408.8 337.7L406.9 334.9L404.0 332.2L401.2 329.4L398.8 326.6L397.0 323.9L395.9 321.1L395.1 318.3L394.6 315.6L394.1 312.8L393.6 310.0L393.3 307.3L392.9 304.5L392.7 301.7L392.6 299.0L392.6 296.2L392.7 293.4L393.1 290.7L393.6 287.9L394.3 285.1L395.2 282.4L396.3 279.6L397.4 276.9L398.6 274.1L400.0 271.3L401.6 268.6L403.6 265.8L406.1 263.0L408.9 260.3L411.9 257.5L414.4 254.7L416.2 252.0L417.1 249.2L417.4 246.4L417.6 243.7L417.7 240.9L417.9 238.1L418.0 235.4L418.1 232.6L418.0 229.8L417.8 227.1L417.5 224.3L417.1 221.5L416.8 218.8L417.0 216.0Z" fill="#b5643c" opacity=".18"/><path d="M468.5 216.0L464.1 218.8L460.2 221.5L457.4 224.3L455.7 227.1L454.8 229.8L454.3 232.6L454.2 235.4L454.6 238.1L455.7 240.9L457.6 243.7L460.3 246.4L463.6 249.2L467.2 252.0L470.7 254.7L473.7 257.5L476.3 260.3L478.6 263.0L480.7 265.8L482.6 268.6L484.4 271.3L486.1 274.1L487.5 276.9L488.7 279.6L489.5 282.4L490.1 285.1L490.6 287.9L491.0 290.7L491.2 293.4L491.3 296.2L491.3 299.0L491.2 301.7L490.9 304.5L490.5 307.3L489.9 310.0L489.2 312.8L488.4 315.6L487.5 318.3L486.4 321.1L484.9 323.9L483.1 326.6L480.7 329.4L477.4 332.2L474.2 334.9L471.3 337.7L469.2 340.5L467.4 343.2L465.8 346.0L439.1 346.0L439.6 343.2L440.2 340.5L441.2 337.7L443.1 334.9L446.0 332.2L448.8 329.4L451.2 326.6L453.0 323.9L454.1 321.1L454.9 318.3L455.4 315.6L455.9 312.8L456.4 310.0L456.7 307.3L457.1 304.5L457.3 301.7L457.4 299.0L457.4 296.2L457.3 293.4L456.9 290.7L456.4 287.9L455.7 285.1L454.8 282.4L453.7 279.6L452.6 276.9L451.4 274.1L450.0 271.3L448.4 268.6L446.4 265.8L443.9 263.0L441.1 260.3L438.1 257.5L435.6 254.7L433.8 252.0L432.9 249.2L432.6 246.4L432.4 243.7L432.3 240.9L432.1 238.1L432.0 235.4L431.9 232.6L432.0 229.8L432.2 227.1L432.5 224.3L432.9 221.5L433.2 218.8L433.0 216.0Z" fill="#b5643c" opacity=".18"/><path d="M399.3 216.0L401.4 218.8L403.5 221.5L405.0 224.3L406.0 227.1L406.6 229.8L406.9 232.6L406.9 235.4L406.6 238.1L406.0 240.9L405.0 243.7L403.6 246.4L401.7 249.2L399.5 252.0L396.9 254.7L394.1 257.5L391.3 260.3L388.8 263.0L386.5 265.8L384.5 268.6L382.8 271.3L381.3 274.1L379.9 276.9L378.8 279.6L377.9 282.4L377.1 285.1L376.5 287.9L376.0 290.7L375.8 293.4L375.6 296.2L375.6 299.0L375.8 301.7L376.0 304.5L376.4 307.3L376.9 310.0L377.4 312.8L378.1 315.6L378.8 318.3L379.8 321.1L381.1 323.9L382.9 326.6L385.3 329.4L388.3 332.2L391.4 334.9L393.7 337.7L395.3 340.5L396.5 343.2L397.6 346.0" fill="none" stroke="#2e2620" stroke-width="2"/><path d="M450.7 216.0L448.6 218.8L446.5 221.5L445.0 224.3L444.0 227.1L443.4 229.8L443.1 232.6L443.1 235.4L443.4 238.1L444.0 240.9L445.0 243.7L446.4 246.4L448.3 249.2L450.5 252.0L453.1 254.7L455.9 257.5L458.7 260.3L461.2 263.0L463.5 265.8L465.5 268.6L467.2 271.3L468.7 274.1L470.1 276.9L471.2 279.6L472.1 282.4L472.9 285.1L473.5 287.9L474.0 290.7L474.2 293.4L474.4 296.2L474.4 299.0L474.2 301.7L474.0 304.5L473.6 307.3L473.1 310.0L472.6 312.8L471.9 315.6L471.2 318.3L470.2 321.1L468.9 323.9L467.1 326.6L464.7 329.4L461.7 332.2L458.6 334.9L456.3 337.7L454.7 340.5L453.5 343.2L452.4 346.0" fill="none" stroke="#2e2620" stroke-width="2"/><path d="M453.2 216.0L449.1 218.8L444.5 221.5L441.1 224.3L440.1 227.1L439.8 229.8L439.7 232.6L439.7 235.4L439.8 238.1L440.9 240.9L442.7 243.7L445.0 246.4L447.8 249.2L450.5 252.0L453.3 254.7L455.8 257.5L457.8 260.3L459.3 263.0L461.0 265.8L462.6 268.6L464.1 271.3L465.6 274.1L466.9 276.9L467.8 279.6L468.4 282.4L468.6 285.1L468.6 287.9L468.3 290.7L468.0 293.4L467.6 296.2L467.1 299.0L466.6 301.7L465.9 304.5L465.2 307.3L464.4 310.0L463.6 312.8L462.7 315.6L461.8 318.3L460.6 321.1L458.9 323.9L456.9 326.6L454.5 329.4L452.2 332.2L449.8 334.9L447.8 337.7L445.9 340.5L444.6 343.2L443.5 346.0" fill="none" stroke="#7a6c60" stroke-width=".7" opacity=".6"/><path d="M448.8 216.0L448.5 218.8L448.1 221.5L447.8 224.3L447.4 227.1L447.1 229.8L446.8 232.6L446.7 235.4L446.4 238.1L446.3 240.9L446.2 243.7L446.1 246.4L446.1 249.2L445.9 252.0L446.7 254.7L448.9 257.5L452.2 260.3L456.2 263.0L460.4 265.8L464.5 268.6L468.2 271.3L470.8 274.1L473.0 276.9L475.2 279.6L477.4 282.4L479.3 285.1L481.0 287.9L482.3 290.7L483.1 293.4L483.2 296.2L483.0 299.0L482.6 301.7L481.9 304.5L481.0 307.3L480.0 310.0L478.8 312.8L477.5 315.6L476.1 318.3L474.5 321.1L472.8 323.9L470.0 326.6L466.1 329.4L461.7 332.2L457.4 334.9L453.9 337.7L451.5 340.5L450.2 343.2L449.1 346.0" fill="none" stroke="#7a6c60" stroke-width=".7" opacity=".6"/><path d="M460.8 216.0L459.8 218.8L458.7 221.5L457.6 224.3L456.9 227.1L456.2 229.8L455.7 232.6L455.2 235.4L454.8 238.1L454.5 240.9L454.6 243.7L455.9 246.4L458.1 249.2L460.9 252.0L464.1 254.7L467.3 257.5L470.1 260.3L472.4 263.0L474.4 265.8L476.4 268.6L478.3 271.3L480.3 274.1L481.8 276.9L483.1 279.6L483.9 282.4L484.0 285.1L484.0 287.9L483.9 290.7L483.8 293.4L483.6 296.2L483.4 299.0L483.0 301.7L482.7 304.5L482.3 307.3L481.8 310.0L481.3 312.8L480.8 315.6L480.3 318.3L478.9 321.1L476.6 323.9L473.6 326.6L470.4 329.4L467.5 332.2L465.4 334.9L464.6 337.7L464.6 340.5L464.6 343.2L464.6 346.0" fill="none" stroke="#7a6c60" stroke-width=".7" opacity=".6"/><path d="M446.4 216.0L445.8 218.8L445.0 221.5L444.4 224.3L443.9 227.1L443.7 229.8L443.6 232.6L443.6 235.4L443.6 238.1L443.6 240.9L443.6 243.7L444.5 246.4L446.3 249.2L449.1 252.0L452.3 254.7L455.8 257.5L459.4 260.3L462.8 263.0L465.8 265.8L468.2 268.6L469.6 271.3L470.8 274.1L471.9 276.9L473.0 279.6L473.9 282.4L474.8 285.1L475.6 287.9L476.1 290.7L476.5 293.4L476.7 296.2L476.7 299.0L476.6 301.7L476.2 304.5L475.7 307.3L475.1 310.0L474.1 312.8L473.4 315.6L472.3 318.3L471.3 321.1L470.2 323.9L468.9 326.6L467.0 329.4L464.8 332.2L462.3 334.9L459.7 337.7L457.4 340.5L455.3 343.2L453.3 346.0" fill="none" stroke="#7a6c60" stroke-width=".7" opacity=".6"/><path d="M460.9 216.0L457.8 218.8L454.4 221.5L451.9 224.3L450.9 227.1L450.5 229.8L450.2 232.6L450.1 235.4L450.4 238.1L451.4 240.9L453.2 243.7L455.4 246.4L458.1 249.2L461.1 252.0L464.3 254.7L467.4 257.5L470.5 260.3L473.2 263.0L475.6 265.8L477.4 268.6L478.6 271.3L479.7 274.1L480.8 276.9L481.8 279.6L482.7 282.4L483.6 285.1L484.5 287.9L485.2 290.7L485.8 293.4L486.4 296.2L486.8 299.0L487.0 301.7L487.1 304.5L487.0 307.3L486.8 310.0L486.4 312.8L485.8 315.6L485.2 318.3L484.4 321.1L483.5 323.9L482.5 326.6L480.9 329.4L477.9 332.2L474.5 334.9L471.7 337.7L469.5 340.5L467.5 343.2L465.4 346.0" fill="none" stroke="#7a6c60" stroke-width=".7" opacity=".6"/><path d="M451.8 216.0L449.7 218.8L447.2 221.5L444.9 224.3L442.8 227.1L441.4 229.8L441.0 232.6L440.9 235.4L440.7 238.1L440.7 240.9L440.7 243.7L440.6 246.4L440.7 249.2L441.4 252.0L442.7 254.7L444.5 257.5L446.7 260.3L449.1 263.0L451.4 265.8L453.9 268.6L455.9 271.3L457.8 274.1L459.2 276.9L460.2 279.6L461.3 282.4L462.2 285.1L463.2 287.9L464.1 290.7L464.9 293.4L465.6 296.2L466.1 299.0L466.5 301.7L466.7 304.5L466.7 307.3L466.6 310.0L466.3 312.8L465.9 315.6L465.4 318.3L464.8 321.1L464.0 323.9L463.1 326.6L461.9 329.4L458.8 332.2L454.6 334.9L451.0 337.7L448.8 340.5L447.4 343.2L446.2 346.0" fill="none" stroke="#7a6c60" stroke-width=".7" opacity=".6"/><text x="595" y="206" text-anchor="middle" fill="#2e2620">Hohe Vase</text><path d="M557.2 216.0L559.2 218.8L560.9 221.5L561.8 224.3L562.0 227.1L561.2 229.8L559.8 232.6L558.2 235.4L556.7 238.1L555.5 240.9L554.6 243.7L553.9 246.4L553.3 249.2L552.9 252.0L552.6 254.7L552.3 257.5L552.1 260.3L552.0 263.0L551.9 265.8L552.0 268.6L552.1 271.3L552.2 274.1L552.5 276.9L552.7 279.6L553.0 282.4L553.3 285.1L553.6 287.9L553.9 290.7L554.2 293.4L554.5 296.2L554.9 299.0L555.2 301.7L555.5 304.5L555.8 307.3L556.2 310.0L556.5 312.8L556.9 315.6L557.4 318.3L557.8 321.1L558.2 323.9L558.7 326.6L559.1 329.4L559.5 332.2L559.9 334.9L560.4 337.7L560.8 340.5L561.5 343.2L562.7 346.0L584.7 346.0L584.1 343.2L583.6 340.5L583.2 337.7L582.8 334.9L582.4 332.2L581.9 329.4L581.5 326.6L581.1 323.9L580.7 321.1L580.3 318.3L579.9 315.6L579.6 312.8L579.3 310.0L579.0 307.3L578.8 304.5L578.5 301.7L578.3 299.0L578.1 296.2L577.9 293.4L577.7 290.7L577.5 287.9L577.3 285.1L577.1 282.4L577.0 279.6L576.8 276.9L576.7 274.1L576.6 271.3L576.5 268.6L576.4 265.8L576.4 263.0L576.5 260.3L576.6 257.5L576.8 254.7L577.2 252.0L577.6 249.2L578.2 246.4L579.1 243.7L580.2 240.9L581.4 238.1L582.6 235.4L583.3 232.6L583.6 229.8L584.0 227.1L584.1 224.3L584.0 221.5L583.7 218.8L583.6 216.0Z" fill="#b5643c" opacity=".18"/><path d="M632.8 216.0L630.8 218.8L629.1 221.5L628.2 224.3L628.0 227.1L628.8 229.8L630.2 232.6L631.8 235.4L633.3 238.1L634.5 240.9L635.4 243.7L636.1 246.4L636.7 249.2L637.1 252.0L637.4 254.7L637.7 257.5L637.9 260.3L638.0 263.0L638.1 265.8L638.0 268.6L637.9 271.3L637.8 274.1L637.5 276.9L637.3 279.6L637.0 282.4L636.7 285.1L636.4 287.9L636.1 290.7L635.8 293.4L635.5 296.2L635.1 299.0L634.8 301.7L634.5 304.5L634.2 307.3L633.8 310.0L633.5 312.8L633.1 315.6L632.6 318.3L632.2 321.1L631.8 323.9L631.3 326.6L630.9 329.4L630.5 332.2L630.1 334.9L629.6 337.7L629.2 340.5L628.5 343.2L627.3 346.0L605.3 346.0L605.9 343.2L606.4 340.5L606.8 337.7L607.2 334.9L607.6 332.2L608.1 329.4L608.5 326.6L608.9 323.9L609.3 321.1L609.7 318.3L610.1 315.6L610.4 312.8L610.7 310.0L611.0 307.3L611.2 304.5L611.5 301.7L611.7 299.0L611.9 296.2L612.1 293.4L612.3 290.7L612.5 287.9L612.7 285.1L612.9 282.4L613.0 279.6L613.2 276.9L613.3 274.1L613.4 271.3L613.5 268.6L613.6 265.8L613.6 263.0L613.5 260.3L613.4 257.5L613.2 254.7L612.8 252.0L612.4 249.2L611.8 246.4L610.9 243.7L609.8 240.9L608.6 238.1L607.4 235.4L606.7 232.6L606.4 229.8L606.0 227.1L605.9 224.3L606.0 221.5L606.3 218.8L606.4 216.0Z" fill="#b5643c" opacity=".18"/><path d="M570.4 216.0L571.5 218.8L572.5 221.5L573.0 224.3L573.0 227.1L572.4 229.8L571.5 232.6L570.4 235.4L569.1 238.1L567.9 240.9L566.8 243.7L566.1 246.4L565.5 249.2L565.0 252.0L564.7 254.7L564.4 257.5L564.3 260.3L564.2 263.0L564.2 265.8L564.2 268.6L564.3 271.3L564.5 274.1L564.6 276.9L564.8 279.6L565.1 282.4L565.3 285.1L565.5 287.9L565.8 290.7L566.0 293.4L566.3 296.2L566.6 299.0L566.9 301.7L567.1 304.5L567.4 307.3L567.7 310.0L568.1 312.8L568.4 315.6L568.8 318.3L569.2 321.1L569.6 323.9L570.1 326.6L570.5 329.4L570.9 332.2L571.4 334.9L571.8 337.7L572.2 340.5L572.8 343.2L573.7 346.0" fill="none" stroke="#2e2620" stroke-width="2"/><path d="M619.6 216.0L618.5 218.8L617.5 221.5L617.0 224.3L617.0 227.1L617.6 229.8L618.5 232.6L619.6 235.4L620.9 238.1L622.1 240.9L623.2 243.7L623.9 246.4L624.5 249.2L625.0 252.0L625.3 254.7L625.6 257.5L625.7 260.3L625.8 263.0L625.8 265.8L625.8 268.6L625.7 271.3L625.5 274.1L625.4 276.9L625.2 279.6L624.9 282.4L624.7 285.1L624.5 287.9L624.2 290.7L624.0 293.4L623.7 296.2L623.4 299.0L623.1 301.7L622.9 304.5L622.6 307.3L622.3 310.0L621.9 312.8L621.6 315.6L621.2 318.3L620.8 321.1L620.4 323.9L619.9 326.6L619.5 329.4L619.1 332.2L618.6 334.9L618.2 337.7L617.8 340.5L617.2 343.2L616.3 346.0" fill="none" stroke="#2e2620" stroke-width="2"/><path d="M617.1 216.0L615.1 218.8L614.0 221.5L614.5 224.3L616.1 227.1L618.4 229.8L621.0 232.6L623.5 235.4L625.5 238.1L627.0 240.9L628.1 243.7L629.3 246.4L630.4 249.2L631.3 252.0L631.9 254.7L632.2 257.5L632.2 260.3L632.0 263.0L632.0 265.8L631.9 268.6L631.8 271.3L631.8 274.1L631.5 276.9L631.4 279.6L631.3 282.4L631.1 285.1L630.9 287.9L630.8 290.7L630.5 293.4L630.4 296.2L630.1 299.0L630.0 301.7L629.7 304.5L629.5 307.3L629.2 310.0L628.9 312.8L628.7 315.6L628.4 318.3L628.0 321.1L627.6 323.9L627.2 326.6L626.9 329.4L626.3 332.2L625.9 334.9L625.4 337.7L624.6 340.5L623.7 343.2L622.8 346.0" fill="none" stroke="#7a6c60" stroke-width=".7" opacity=".6"/><path d="M626.2 216.0L623.6 218.8L621.9 221.5L622.7 224.3L624.4 227.1L626.6 229.8L628.8 232.6L630.4 235.4L631.3 238.1L631.9 240.9L632.6 243.7L633.1 246.4L633.4 249.2L633.4 252.0L633.4 254.7L633.1 257.5L633.0 260.3L632.7 263.0L632.3 265.8L632.0 268.6L631.7 271.3L631.3 274.1L630.8 276.9L630.2 279.6L629.8 282.4L629.3 285.1L628.8 287.9L628.3 290.7L627.9 293.4L627.4 296.2L627.0 299.0L626.5 301.7L625.9 304.5L625.4 307.3L624.9 310.0L624.3 312.8L623.7 315.6L623.1 318.3L622.6 321.1L621.9 323.9L621.4 326.6L620.7 329.4L620.2 332.2L619.6 334.9L619.0 337.7L618.5 340.5L618.1 343.2L617.6 346.0" fill="none" stroke="#7a6c60" stroke-width=".7" opacity=".6"/><path d="M609.8 216.0L609.3 218.8L608.8 221.5L608.3 224.3L608.0 227.1L608.5 229.8L612.3 232.6L615.4 235.4L617.5 238.1L618.3 240.9L618.3 243.7L618.3 246.4L618.1 249.2L618.0 252.0L617.9 254.7L617.8 257.5L617.6 260.3L617.4 263.0L617.1 265.8L617.0 268.6L616.7 271.3L616.5 274.1L616.2 276.9L615.9 279.6L615.7 282.4L615.5 285.1L615.3 287.9L615.0 290.7L614.8 293.4L614.5 296.2L614.4 299.0L614.2 301.7L614.0 304.5L613.9 307.3L613.7 310.0L613.5 312.8L613.3 315.6L613.1 318.3L612.8 321.1L612.5 323.9L612.3 326.6L611.9 329.4L611.6 332.2L611.1 334.9L610.7 337.7L610.1 340.5L609.6 343.2L607.6 346.0" fill="none" stroke="#7a6c60" stroke-width=".7" opacity=".6"/><path d="M610.2 216.0L610.0 218.8L609.8 221.5L609.6 224.3L609.4 227.1L609.7 229.8L610.7 232.6L612.4 235.4L614.1 238.1L615.7 240.9L616.6 243.7L617.1 246.4L617.5 249.2L618.0 252.0L618.3 254.7L618.4 257.5L618.5 260.3L618.4 263.0L618.4 265.8L618.3 268.6L618.3 271.3L618.1 274.1L618.0 276.9L617.9 279.6L617.8 282.4L617.6 285.1L617.5 287.9L617.2 290.7L617.1 293.4L617.0 296.2L616.8 299.0L616.7 301.7L616.7 304.5L616.6 307.3L616.5 310.0L616.5 312.8L616.3 315.6L616.3 318.3L616.2 321.1L616.1 323.9L616.1 326.6L615.9 329.4L615.8 332.2L615.7 334.9L615.5 337.7L615.4 340.5L615.0 343.2L614.5 346.0" fill="none" stroke="#7a6c60" stroke-width=".7" opacity=".6"/><path d="M628.0 216.0L626.9 218.8L626.1 221.5L625.4 224.3L624.8 227.1L624.4 229.8L624.0 232.6L624.1 235.4L625.7 238.1L628.0 240.9L630.1 243.7L632.4 246.4L634.0 249.2L634.1 252.0L634.0 254.7L633.9 257.5L633.7 260.3L633.5 263.0L633.4 265.8L633.0 268.6L632.7 271.3L632.3 274.1L632.0 276.9L631.7 279.6L631.3 282.4L630.9 285.1L630.5 287.9L630.0 290.7L629.6 293.4L629.2 296.2L628.8 299.0L628.4 301.7L628.0 304.5L627.5 307.3L627.1 310.0L626.7 312.8L626.2 315.6L625.7 318.3L625.2 321.1L624.5 323.9L623.9 326.6L623.2 329.4L622.4 332.2L621.6 334.9L620.7 337.7L619.7 340.5L618.4 343.2L616.5 346.0" fill="none" stroke="#7a6c60" stroke-width=".7" opacity=".6"/><path d="M621.3 216.0L620.2 218.8L619.2 221.5L618.0 224.3L617.1 227.1L616.6 229.8L616.8 232.6L618.5 235.4L621.4 238.1L624.5 240.9L627.1 243.7L628.5 246.4L629.5 249.2L630.4 252.0L631.0 254.7L631.4 257.5L631.5 260.3L631.5 263.0L631.5 265.8L631.5 268.6L631.4 271.3L631.3 274.1L631.1 276.9L631.0 279.6L630.9 282.4L630.8 285.1L630.6 287.9L630.5 290.7L630.2 293.4L630.1 296.2L630.0 299.0L629.7 301.7L629.6 304.5L629.3 307.3L629.1 310.0L628.9 312.8L628.5 315.6L628.3 318.3L628.0 321.1L627.6 323.9L627.2 326.6L626.9 329.4L626.5 332.2L626.1 334.9L625.5 337.7L625.0 340.5L624.4 343.2L623.5 346.0" fill="none" stroke="#7a6c60" stroke-width=".7" opacity=".6"/></svg>
